<svg width="293" height="317" viewBox="0 0 293 317" fill="none" xmlns="http://www.w3.org/2000/svg">
<g opacity="0.9">
<g filter="url(#filter0_d_160_30609)">
<path d="M86.8941 232.709C94.9159 232.161 100.974 225.213 100.426 217.192C99.8779 209.17 92.9304 203.111 84.9086 203.66C76.8868 204.208 70.8283 211.155 71.3765 219.177C71.9248 227.199 78.8723 233.257 86.8941 232.709Z" fill="#FFF5F0" fill-opacity="0.5" shape-rendering="crispEdges"/>
<path d="M84.8403 202.662C93.4131 202.076 100.838 208.551 101.424 217.123C102.01 225.696 95.535 233.121 86.9622 233.707C78.3894 234.293 70.9648 227.818 70.3789 219.245C69.793 210.672 76.2676 203.248 84.8403 202.662Z" stroke="#262626" stroke-width="2" shape-rendering="crispEdges"/>
</g>
<g filter="url(#filter1_d_160_30609)">
<path d="M128.62 258.462C136.368 258.462 142.649 252.181 142.649 244.433C142.649 236.685 136.368 230.404 128.62 230.404C120.872 230.404 114.591 236.685 114.591 244.433C114.591 252.181 120.872 258.462 128.62 258.462Z" fill="#FFF5F0" fill-opacity="0.5" shape-rendering="crispEdges"/>
<path d="M128.621 229.404C136.921 229.404 143.649 236.133 143.649 244.433C143.649 252.733 136.921 259.462 128.621 259.462C120.32 259.462 113.592 252.734 113.591 244.433C113.591 236.133 120.32 229.404 128.621 229.404Z" stroke="#262626" stroke-width="2" shape-rendering="crispEdges"/>
</g>
<g filter="url(#filter2_d_160_30609)">
<path d="M163.396 248.523C163.396 241.064 169.436 235.024 176.895 235.024C184.355 235.024 190.394 241.064 190.394 248.523C190.394 255.983 184.355 262.022 176.895 262.022C169.436 262.022 163.396 255.983 163.396 248.523Z" fill="#FFF5F0" fill-opacity="0.5" shape-rendering="crispEdges"/>
<path d="M176.895 234.024C184.907 234.024 191.394 240.511 191.394 248.523C191.394 256.535 184.907 263.022 176.895 263.022C168.883 263.022 162.396 256.535 162.396 248.523C162.396 240.511 168.883 234.024 176.895 234.024Z" stroke="#262626" stroke-width="2" shape-rendering="crispEdges"/>
</g>
<g filter="url(#filter3_d_160_30609)">
<path d="M209.658 230.531C209.658 223.368 215.464 217.541 222.648 217.541C229.832 217.541 235.639 223.347 235.639 230.531C235.639 237.715 229.832 243.522 222.648 243.522C215.464 243.522 209.658 237.715 209.658 230.531Z" fill="#FFF5F0" fill-opacity="0.5" shape-rendering="crispEdges"/>
<path d="M222.648 216.541C230.384 216.541 236.638 222.795 236.638 230.531C236.638 238.267 230.384 244.522 222.648 244.522C214.912 244.522 208.658 238.267 208.658 230.531C208.658 222.817 214.911 216.541 222.648 216.541Z" stroke="#262626" stroke-width="2" shape-rendering="crispEdges"/>
</g>
<g filter="url(#filter4_d_160_30609)">
<path d="M244.306 192.662C244.306 185.774 249.879 180.201 256.766 180.201C263.654 180.201 269.227 185.774 269.227 192.662C269.227 199.549 263.654 205.122 256.766 205.122C249.879 205.122 244.306 199.549 244.306 192.662Z" fill="#FFF5F0" fill-opacity="0.5" shape-rendering="crispEdges"/>
<path d="M256.767 179.201C264.206 179.201 270.228 185.222 270.228 192.662C270.227 200.101 264.206 206.123 256.767 206.123C249.327 206.123 243.306 200.101 243.306 192.662C243.306 185.222 249.327 179.201 256.767 179.201Z" stroke="#262626" stroke-width="2" shape-rendering="crispEdges"/>
</g>
<g filter="url(#filter5_d_160_30609)">
<path d="M259.585 145.977C259.585 139.386 264.926 134.046 271.516 134.046C278.107 134.046 283.447 139.386 283.447 145.977C283.447 152.567 278.107 157.908 271.516 157.908C264.926 157.908 259.585 152.567 259.585 145.977Z" fill="#FFF5F0" fill-opacity="0.5" shape-rendering="crispEdges"/>
<path d="M271.516 133.046C278.659 133.046 284.447 138.834 284.447 145.976C284.447 153.119 278.659 158.908 271.516 158.908C264.373 158.908 258.585 153.119 258.585 145.976C258.586 138.834 264.373 133.046 271.516 133.046Z" stroke="#262626" stroke-width="2" shape-rendering="crispEdges"/>
</g>
<g filter="url(#filter6_d_160_30609)">
<path d="M254.966 97.7019C254.966 91.3867 260.073 86.2795 266.388 86.2795C272.703 86.2795 277.811 91.3867 277.811 97.7019C277.811 104.017 272.703 109.124 266.388 109.124C260.073 109.124 254.966 104.017 254.966 97.7019Z" fill="#FFF5F0" fill-opacity="0.5" shape-rendering="crispEdges"/>
<path d="M266.388 85.2795C273.255 85.2795 278.81 90.8342 278.811 97.7014C278.811 104.569 273.255 110.124 266.388 110.124C259.521 110.124 253.966 104.569 253.966 97.7014C253.966 90.8344 259.521 85.2798 266.388 85.2795Z" stroke="#262626" stroke-width="2" shape-rendering="crispEdges"/>
</g>
<g filter="url(#filter7_d_160_30609)">
<path d="M230.446 54.4284C230.446 48.41 235.32 43.5359 241.339 43.5359C247.357 43.5359 252.231 48.41 252.231 54.4284C252.231 60.4469 247.357 65.321 241.339 65.321C235.32 65.321 230.446 60.4469 230.446 54.4284Z" fill="#FFF5F0" fill-opacity="0.5" shape-rendering="crispEdges"/>
<path d="M241.339 42.5359C247.91 42.536 253.231 47.8578 253.231 54.4285C253.231 60.9991 247.91 66.321 241.339 66.321C234.768 66.321 229.446 60.9992 229.446 54.4285C229.446 47.8578 234.768 42.5359 241.339 42.5359Z" stroke="#262626" stroke-width="2" shape-rendering="crispEdges"/>
</g>
<g filter="url(#filter8_d_160_30609)">
<path d="M190.119 24.2089C190.119 18.4872 194.76 13.8462 200.481 13.8462C206.203 13.8462 210.844 18.4872 210.844 24.2089C210.844 29.9307 206.203 34.5717 200.481 34.5717C194.76 34.5717 190.119 29.9307 190.119 24.2089Z" fill="#FFF5F0" fill-opacity="0.5" shape-rendering="crispEdges"/>
<path d="M200.481 12.8462C206.755 12.8462 211.844 17.9346 211.844 24.2085C211.844 30.4825 206.755 35.5718 200.481 35.5718C194.207 35.5715 189.119 30.4824 189.119 24.2085C189.119 17.9348 194.207 12.8464 200.481 12.8462Z" stroke="#262626" stroke-width="2" shape-rendering="crispEdges"/>
</g>
<g filter="url(#filter9_d_160_30609)">
<path d="M143.37 11.8541C143.37 6.40787 147.778 2 153.224 2C158.67 2 163.078 6.40787 163.078 11.8541C163.078 17.3004 158.67 21.7083 153.224 21.7083C147.778 21.7083 143.37 17.3004 143.37 11.8541Z" fill="#FFF5F0" fill-opacity="0.5" shape-rendering="crispEdges"/>
<path d="M153.224 1C159.223 1.00016 164.078 5.85605 164.078 11.8545C164.077 17.8528 159.222 22.7078 153.224 22.708C147.226 22.708 142.37 17.8529 142.37 11.8545C142.37 5.85593 147.226 1 153.224 1Z" stroke="#262626" stroke-width="2" shape-rendering="crispEdges"/>
</g>
<g filter="url(#filter10_d_160_30609)">
<path d="M95.6035 17.4064C95.6035 12.2568 99.7782 8.08203 104.928 8.08203C110.077 8.08203 114.252 12.2568 114.252 17.4064C114.252 22.556 110.077 26.7307 104.928 26.7307C99.7782 26.7307 95.6035 22.556 95.6035 17.4064Z" fill="#FFF5F0" fill-opacity="0.5" shape-rendering="crispEdges"/>
<path d="M104.928 7.08203C110.63 7.08203 115.252 11.7044 115.252 17.4062C115.252 23.1081 110.63 27.7305 104.928 27.7305C99.2259 27.7304 94.6035 23.1081 94.6035 17.4062C94.6036 11.7045 99.2259 7.08206 104.928 7.08203Z" stroke="#262626" stroke-width="2" shape-rendering="crispEdges"/>
</g>
<g filter="url(#filter11_d_160_30609)">
<path d="M52.1826 40.8866C52.1826 36.0125 56.1242 32.0708 60.9983 32.0708C65.8724 32.0708 69.814 36.0125 69.814 40.8866C69.814 45.7606 65.8724 49.7023 60.9983 49.7023C56.1242 49.7023 52.1826 45.7606 52.1826 40.8866Z" fill="#FFF5F0" fill-opacity="0.5" shape-rendering="crispEdges"/>
<path d="M60.998 31.0708C66.4243 31.0708 70.8143 35.46 70.8145 40.8862C70.8145 46.3126 66.4244 50.7026 60.998 50.7026C55.5718 50.7025 51.1826 46.3125 51.1826 40.8862C51.1828 35.4601 55.5719 31.0709 60.998 31.0708Z" stroke="#262626" stroke-width="2" shape-rendering="crispEdges"/>
</g>
<g filter="url(#filter12_d_160_30609)">
<path d="M19.4404 79.8795C19.4404 75.3021 23.1489 71.5935 27.7263 71.5935C32.3037 71.5935 36.0124 75.3021 36.0124 79.8795C36.0124 84.4569 32.3037 88.1654 27.7263 88.1654C23.1489 88.1654 19.4404 84.4569 19.4404 79.8795Z" fill="#FFF5F0" fill-opacity="0.5" shape-rendering="crispEdges"/>
<path d="M27.7266 70.5935C32.8561 70.5936 37.0127 74.75 37.0127 79.8796C37.0126 85.0092 32.8561 89.1656 27.7266 89.1658C22.5969 89.1658 18.4405 85.0092 18.4404 79.8796C18.4404 74.75 22.5969 70.5935 27.7266 70.5935Z" stroke="#262626" stroke-width="2" shape-rendering="crispEdges"/>
</g>
<g filter="url(#filter13_d_160_30609)">
<path d="M2.65723 125.971C2.65723 121.691 6.13274 118.215 10.4135 118.215C14.6942 118.215 18.1696 121.691 18.1696 125.971C18.1696 130.252 14.6942 133.728 10.4135 133.728C6.13274 133.728 2.65723 130.252 2.65723 125.971Z" fill="#FFF5F0" fill-opacity="0.5" shape-rendering="crispEdges"/>
<path d="M10.4131 117.215C15.246 117.215 19.1698 121.138 19.1699 125.971C19.1699 130.804 15.2461 134.728 10.4131 134.728C5.58026 134.728 1.65723 130.804 1.65723 125.971C1.65739 121.138 5.58036 117.216 10.4131 117.215Z" stroke="#262626" stroke-width="2" shape-rendering="crispEdges"/>
</g>
<g filter="url(#filter14_d_160_30609)">
<path d="M2 174.543C2 170.537 5.24242 167.295 9.24766 167.295C13.2529 167.295 16.4952 170.537 16.4952 174.543C16.4952 178.548 13.2529 181.79 9.24766 181.79C5.24242 181.79 2 178.548 2 174.543Z" fill="#FFF5F0" fill-opacity="0.5" shape-rendering="crispEdges"/>
<path d="M9.24805 166.295C13.8054 166.295 17.4951 169.986 17.4951 174.543C17.4949 179.1 13.8052 182.79 9.24805 182.79C4.69071 182.79 1.00026 179.101 1 174.543C1 169.986 4.69055 166.295 9.24805 166.295Z" stroke="#262626" stroke-width="2" shape-rendering="crispEdges"/>
</g>
<g filter="url(#filter15_d_160_30609)">
<path d="M17.4912 221.271C17.4912 217.562 20.5005 214.553 24.2091 214.553C27.9176 214.553 30.9268 217.562 30.9268 221.271C30.9268 224.979 27.9176 227.988 24.2091 227.988C20.5005 227.988 17.4912 224.979 17.4912 221.271Z" fill="#FFF5F0" fill-opacity="0.5" shape-rendering="crispEdges"/>
<path d="M24.209 213.553C28.4698 213.553 31.9268 217.01 31.9268 221.271C31.9268 225.531 28.4698 228.988 24.209 228.988C19.9482 228.988 16.4912 225.531 16.4912 221.271C16.4912 217.01 19.9482 213.553 24.209 213.553Z" stroke="#262626" stroke-width="2" shape-rendering="crispEdges"/>
</g>
<g filter="url(#filter16_d_160_30609)">
<path d="M49.0454 261.747C49.0454 258.335 51.8215 255.559 55.2334 255.559C58.6452 255.559 61.4214 258.335 61.4214 261.747C61.4214 265.158 58.6452 267.935 55.2334 267.935C51.8215 267.935 49.0454 265.158 49.0454 261.747Z" fill="#FFF5F0" fill-opacity="0.5" shape-rendering="crispEdges"/>
<path d="M55.2329 254.559C59.1969 254.559 62.4211 257.782 62.4214 261.746C62.4214 265.71 59.197 268.935 55.2329 268.935C51.269 268.934 48.0454 265.71 48.0454 261.746C48.0457 257.782 51.2691 254.559 55.2329 254.559Z" stroke="#262626" stroke-width="2" shape-rendering="crispEdges"/>
</g>
<g filter="url(#filter17_d_160_30609)">
<path d="M91.5562 289.953C91.5562 286.816 94.0991 284.273 97.2355 284.273C100.372 284.273 102.915 286.816 102.915 289.953C102.915 293.089 100.372 295.632 97.2355 295.632C94.0991 295.632 91.5562 293.089 91.5562 289.953Z" fill="#FFF5F0" fill-opacity="0.5" shape-rendering="crispEdges"/>
<path d="M97.2358 283.273C100.924 283.273 103.915 286.264 103.915 289.953C103.914 293.641 100.924 296.632 97.2358 296.632C93.5473 296.632 90.5563 293.642 90.5562 289.953C90.5562 286.264 93.5472 283.273 97.2358 283.273Z" stroke="#262626" stroke-width="2" shape-rendering="crispEdges"/>
</g>
<g filter="url(#filter18_d_160_30609)">
<path d="M139.153 303.6C139.153 300.761 141.463 298.451 144.302 298.451C147.142 298.451 149.452 300.761 149.452 303.6C149.452 306.44 147.142 308.75 144.302 308.75C141.463 308.75 139.153 306.44 139.153 303.6Z" fill="#FFF5F0" fill-opacity="0.5" shape-rendering="crispEdges"/>
<path d="M144.302 297.451C147.694 297.451 150.452 300.208 150.452 303.6C150.452 306.992 147.694 309.75 144.302 309.75C140.91 309.749 138.153 306.992 138.153 303.6C138.153 300.208 140.91 297.451 144.302 297.451Z" stroke="#262626" stroke-width="2" shape-rendering="crispEdges"/>
</g>
<g filter="url(#filter19_d_160_30609)">
<path d="M192.916 307.351C195.468 307.351 197.536 305.283 197.536 302.732C197.536 300.18 195.468 298.112 192.916 298.112C190.365 298.112 188.296 300.18 188.296 302.732C188.296 305.283 190.365 307.351 192.916 307.351Z" fill="#FFF5F0" fill-opacity="0.5" shape-rendering="crispEdges"/>
<path d="M192.917 297.112C196.02 297.112 198.536 299.628 198.536 302.732C198.535 305.835 196.02 308.351 192.917 308.351C189.813 308.351 187.297 305.835 187.296 302.732C187.296 299.628 189.813 297.112 192.917 297.112Z" stroke="#262626" stroke-width="2" shape-rendering="crispEdges"/>
</g>
<g filter="url(#filter20_d_160_30609)">
<path d="M235.448 287.304C235.448 285.036 237.292 283.193 239.559 283.193C241.827 283.193 243.671 285.036 243.671 287.304C243.671 289.571 241.827 291.415 239.559 291.415C237.292 291.415 235.448 289.571 235.448 287.304Z" fill="#FFF5F0" fill-opacity="0.5" shape-rendering="crispEdges"/>
<path d="M239.56 282.193C242.379 282.193 244.671 284.484 244.671 287.304C244.671 290.124 242.379 292.415 239.56 292.415C236.74 292.415 234.448 290.124 234.448 287.304C234.448 284.484 236.74 282.193 239.56 282.193Z" stroke="#262626" stroke-width="2" shape-rendering="crispEdges"/>
</g>
<g filter="url(#filter21_d_160_30609)">
<path d="M277.111 257.36C277.111 255.389 278.721 253.779 280.692 253.779C282.663 253.779 284.274 255.389 284.274 257.36C284.274 259.331 282.663 260.942 280.692 260.942C278.721 260.942 277.111 259.331 277.111 257.36Z" fill="#FFF5F0" fill-opacity="0.5" shape-rendering="crispEdges"/>
<path d="M280.692 252.779C283.215 252.779 285.274 254.837 285.274 257.36C285.274 259.883 283.215 261.942 280.692 261.942C278.169 261.942 276.111 259.883 276.111 257.36C276.111 254.837 278.169 252.779 280.692 252.779Z" stroke="#262626" stroke-width="2" shape-rendering="crispEdges"/>
</g>
</g>
<defs>
<filter id="filter0_d_160_30609" x="69.3418" y="201.625" width="39.1187" height="39.1188" filterUnits="userSpaceOnUse" color-interpolation-filters="sRGB">
<feFlood flood-opacity="0" result="BackgroundImageFix"/>
<feColorMatrix in="SourceAlpha" type="matrix" values="0 0 0 0 0 0 0 0 0 0 0 0 0 0 0 0 0 0 127 0" result="hardAlpha"/>
<feOffset dx="6" dy="6"/>
<feComposite in2="hardAlpha" operator="out"/>
<feColorMatrix type="matrix" values="0 0 0 0 0.0980392 0 0 0 0 0.0980392 0 0 0 0 0.0980392 0 0 0 1 0"/>
<feBlend mode="normal" in2="BackgroundImageFix" result="effect1_dropShadow_160_30609"/>
<feBlend mode="normal" in="SourceGraphic" in2="effect1_dropShadow_160_30609" result="shape"/>
</filter>
<filter id="filter1_d_160_30609" x="112.591" y="228.404" width="38.0576" height="38.0579" filterUnits="userSpaceOnUse" color-interpolation-filters="sRGB">
<feFlood flood-opacity="0" result="BackgroundImageFix"/>
<feColorMatrix in="SourceAlpha" type="matrix" values="0 0 0 0 0 0 0 0 0 0 0 0 0 0 0 0 0 0 127 0" result="hardAlpha"/>
<feOffset dx="6" dy="6"/>
<feComposite in2="hardAlpha" operator="out"/>
<feColorMatrix type="matrix" values="0 0 0 0 0.0980392 0 0 0 0 0.0980392 0 0 0 0 0.0980392 0 0 0 1 0"/>
<feBlend mode="normal" in2="BackgroundImageFix" result="effect1_dropShadow_160_30609"/>
<feBlend mode="normal" in="SourceGraphic" in2="effect1_dropShadow_160_30609" result="shape"/>
</filter>
<filter id="filter2_d_160_30609" x="161.396" y="233.024" width="36.998" height="36.9982" filterUnits="userSpaceOnUse" color-interpolation-filters="sRGB">
<feFlood flood-opacity="0" result="BackgroundImageFix"/>
<feColorMatrix in="SourceAlpha" type="matrix" values="0 0 0 0 0 0 0 0 0 0 0 0 0 0 0 0 0 0 127 0" result="hardAlpha"/>
<feOffset dx="6" dy="6"/>
<feComposite in2="hardAlpha" operator="out"/>
<feColorMatrix type="matrix" values="0 0 0 0 0.0980392 0 0 0 0 0.0980392 0 0 0 0 0.0980392 0 0 0 1 0"/>
<feBlend mode="normal" in2="BackgroundImageFix" result="effect1_dropShadow_160_30609"/>
<feBlend mode="normal" in="SourceGraphic" in2="effect1_dropShadow_160_30609" result="shape"/>
</filter>
<filter id="filter3_d_160_30609" x="207.658" y="215.541" width="35.981" height="35.9811" filterUnits="userSpaceOnUse" color-interpolation-filters="sRGB">
<feFlood flood-opacity="0" result="BackgroundImageFix"/>
<feColorMatrix in="SourceAlpha" type="matrix" values="0 0 0 0 0 0 0 0 0 0 0 0 0 0 0 0 0 0 127 0" result="hardAlpha"/>
<feOffset dx="6" dy="6"/>
<feComposite in2="hardAlpha" operator="out"/>
<feColorMatrix type="matrix" values="0 0 0 0 0.0980392 0 0 0 0 0.0980392 0 0 0 0 0.0980392 0 0 0 1 0"/>
<feBlend mode="normal" in2="BackgroundImageFix" result="effect1_dropShadow_160_30609"/>
<feBlend mode="normal" in="SourceGraphic" in2="effect1_dropShadow_160_30609" result="shape"/>
</filter>
<filter id="filter4_d_160_30609" x="242.306" y="178.201" width="34.9214" height="34.9214" filterUnits="userSpaceOnUse" color-interpolation-filters="sRGB">
<feFlood flood-opacity="0" result="BackgroundImageFix"/>
<feColorMatrix in="SourceAlpha" type="matrix" values="0 0 0 0 0 0 0 0 0 0 0 0 0 0 0 0 0 0 127 0" result="hardAlpha"/>
<feOffset dx="6" dy="6"/>
<feComposite in2="hardAlpha" operator="out"/>
<feColorMatrix type="matrix" values="0 0 0 0 0.0980392 0 0 0 0 0.0980392 0 0 0 0 0.0980392 0 0 0 1 0"/>
<feBlend mode="normal" in2="BackgroundImageFix" result="effect1_dropShadow_160_30609"/>
<feBlend mode="normal" in="SourceGraphic" in2="effect1_dropShadow_160_30609" result="shape"/>
</filter>
<filter id="filter5_d_160_30609" x="257.585" y="132.046" width="33.8618" height="33.8618" filterUnits="userSpaceOnUse" color-interpolation-filters="sRGB">
<feFlood flood-opacity="0" result="BackgroundImageFix"/>
<feColorMatrix in="SourceAlpha" type="matrix" values="0 0 0 0 0 0 0 0 0 0 0 0 0 0 0 0 0 0 127 0" result="hardAlpha"/>
<feOffset dx="6" dy="6"/>
<feComposite in2="hardAlpha" operator="out"/>
<feColorMatrix type="matrix" values="0 0 0 0 0.0980392 0 0 0 0 0.0980392 0 0 0 0 0.0980392 0 0 0 1 0"/>
<feBlend mode="normal" in2="BackgroundImageFix" result="effect1_dropShadow_160_30609"/>
<feBlend mode="normal" in="SourceGraphic" in2="effect1_dropShadow_160_30609" result="shape"/>
</filter>
<filter id="filter6_d_160_30609" x="252.966" y="84.2795" width="32.8447" height="32.8447" filterUnits="userSpaceOnUse" color-interpolation-filters="sRGB">
<feFlood flood-opacity="0" result="BackgroundImageFix"/>
<feColorMatrix in="SourceAlpha" type="matrix" values="0 0 0 0 0 0 0 0 0 0 0 0 0 0 0 0 0 0 127 0" result="hardAlpha"/>
<feOffset dx="6" dy="6"/>
<feComposite in2="hardAlpha" operator="out"/>
<feColorMatrix type="matrix" values="0 0 0 0 0.0980392 0 0 0 0 0.0980392 0 0 0 0 0.0980392 0 0 0 1 0"/>
<feBlend mode="normal" in2="BackgroundImageFix" result="effect1_dropShadow_160_30609"/>
<feBlend mode="normal" in="SourceGraphic" in2="effect1_dropShadow_160_30609" result="shape"/>
</filter>
<filter id="filter7_d_160_30609" x="228.446" y="41.5359" width="31.7852" height="31.7852" filterUnits="userSpaceOnUse" color-interpolation-filters="sRGB">
<feFlood flood-opacity="0" result="BackgroundImageFix"/>
<feColorMatrix in="SourceAlpha" type="matrix" values="0 0 0 0 0 0 0 0 0 0 0 0 0 0 0 0 0 0 127 0" result="hardAlpha"/>
<feOffset dx="6" dy="6"/>
<feComposite in2="hardAlpha" operator="out"/>
<feColorMatrix type="matrix" values="0 0 0 0 0.0980392 0 0 0 0 0.0980392 0 0 0 0 0.0980392 0 0 0 1 0"/>
<feBlend mode="normal" in2="BackgroundImageFix" result="effect1_dropShadow_160_30609"/>
<feBlend mode="normal" in="SourceGraphic" in2="effect1_dropShadow_160_30609" result="shape"/>
</filter>
<filter id="filter8_d_160_30609" x="188.119" y="11.8462" width="30.7256" height="30.7256" filterUnits="userSpaceOnUse" color-interpolation-filters="sRGB">
<feFlood flood-opacity="0" result="BackgroundImageFix"/>
<feColorMatrix in="SourceAlpha" type="matrix" values="0 0 0 0 0 0 0 0 0 0 0 0 0 0 0 0 0 0 127 0" result="hardAlpha"/>
<feOffset dx="6" dy="6"/>
<feComposite in2="hardAlpha" operator="out"/>
<feColorMatrix type="matrix" values="0 0 0 0 0.0980392 0 0 0 0 0.0980392 0 0 0 0 0.0980392 0 0 0 1 0"/>
<feBlend mode="normal" in2="BackgroundImageFix" result="effect1_dropShadow_160_30609"/>
<feBlend mode="normal" in="SourceGraphic" in2="effect1_dropShadow_160_30609" result="shape"/>
</filter>
<filter id="filter9_d_160_30609" x="141.37" y="0" width="29.7085" height="29.7083" filterUnits="userSpaceOnUse" color-interpolation-filters="sRGB">
<feFlood flood-opacity="0" result="BackgroundImageFix"/>
<feColorMatrix in="SourceAlpha" type="matrix" values="0 0 0 0 0 0 0 0 0 0 0 0 0 0 0 0 0 0 127 0" result="hardAlpha"/>
<feOffset dx="6" dy="6"/>
<feComposite in2="hardAlpha" operator="out"/>
<feColorMatrix type="matrix" values="0 0 0 0 0.0980392 0 0 0 0 0.0980392 0 0 0 0 0.0980392 0 0 0 1 0"/>
<feBlend mode="normal" in2="BackgroundImageFix" result="effect1_dropShadow_160_30609"/>
<feBlend mode="normal" in="SourceGraphic" in2="effect1_dropShadow_160_30609" result="shape"/>
</filter>
<filter id="filter10_d_160_30609" x="93.6035" y="6.08203" width="28.6484" height="28.6487" filterUnits="userSpaceOnUse" color-interpolation-filters="sRGB">
<feFlood flood-opacity="0" result="BackgroundImageFix"/>
<feColorMatrix in="SourceAlpha" type="matrix" values="0 0 0 0 0 0 0 0 0 0 0 0 0 0 0 0 0 0 127 0" result="hardAlpha"/>
<feOffset dx="6" dy="6"/>
<feComposite in2="hardAlpha" operator="out"/>
<feColorMatrix type="matrix" values="0 0 0 0 0.0980392 0 0 0 0 0.0980392 0 0 0 0 0.0980392 0 0 0 1 0"/>
<feBlend mode="normal" in2="BackgroundImageFix" result="effect1_dropShadow_160_30609"/>
<feBlend mode="normal" in="SourceGraphic" in2="effect1_dropShadow_160_30609" result="shape"/>
</filter>
<filter id="filter11_d_160_30609" x="50.1826" y="30.0708" width="27.6313" height="27.6316" filterUnits="userSpaceOnUse" color-interpolation-filters="sRGB">
<feFlood flood-opacity="0" result="BackgroundImageFix"/>
<feColorMatrix in="SourceAlpha" type="matrix" values="0 0 0 0 0 0 0 0 0 0 0 0 0 0 0 0 0 0 127 0" result="hardAlpha"/>
<feOffset dx="6" dy="6"/>
<feComposite in2="hardAlpha" operator="out"/>
<feColorMatrix type="matrix" values="0 0 0 0 0.0980392 0 0 0 0 0.0980392 0 0 0 0 0.0980392 0 0 0 1 0"/>
<feBlend mode="normal" in2="BackgroundImageFix" result="effect1_dropShadow_160_30609"/>
<feBlend mode="normal" in="SourceGraphic" in2="effect1_dropShadow_160_30609" result="shape"/>
</filter>
<filter id="filter12_d_160_30609" x="17.4404" y="69.5935" width="26.5718" height="26.572" filterUnits="userSpaceOnUse" color-interpolation-filters="sRGB">
<feFlood flood-opacity="0" result="BackgroundImageFix"/>
<feColorMatrix in="SourceAlpha" type="matrix" values="0 0 0 0 0 0 0 0 0 0 0 0 0 0 0 0 0 0 127 0" result="hardAlpha"/>
<feOffset dx="6" dy="6"/>
<feComposite in2="hardAlpha" operator="out"/>
<feColorMatrix type="matrix" values="0 0 0 0 0.0980392 0 0 0 0 0.0980392 0 0 0 0 0.0980392 0 0 0 1 0"/>
<feBlend mode="normal" in2="BackgroundImageFix" result="effect1_dropShadow_160_30609"/>
<feBlend mode="normal" in="SourceGraphic" in2="effect1_dropShadow_160_30609" result="shape"/>
</filter>
<filter id="filter13_d_160_30609" x="0.657227" y="116.215" width="25.5122" height="25.5122" filterUnits="userSpaceOnUse" color-interpolation-filters="sRGB">
<feFlood flood-opacity="0" result="BackgroundImageFix"/>
<feColorMatrix in="SourceAlpha" type="matrix" values="0 0 0 0 0 0 0 0 0 0 0 0 0 0 0 0 0 0 127 0" result="hardAlpha"/>
<feOffset dx="6" dy="6"/>
<feComposite in2="hardAlpha" operator="out"/>
<feColorMatrix type="matrix" values="0 0 0 0 0.0980392 0 0 0 0 0.0980392 0 0 0 0 0.0980392 0 0 0 1 0"/>
<feBlend mode="normal" in2="BackgroundImageFix" result="effect1_dropShadow_160_30609"/>
<feBlend mode="normal" in="SourceGraphic" in2="effect1_dropShadow_160_30609" result="shape"/>
</filter>
<filter id="filter14_d_160_30609" x="0" y="165.295" width="24.4951" height="24.4951" filterUnits="userSpaceOnUse" color-interpolation-filters="sRGB">
<feFlood flood-opacity="0" result="BackgroundImageFix"/>
<feColorMatrix in="SourceAlpha" type="matrix" values="0 0 0 0 0 0 0 0 0 0 0 0 0 0 0 0 0 0 127 0" result="hardAlpha"/>
<feOffset dx="6" dy="6"/>
<feComposite in2="hardAlpha" operator="out"/>
<feColorMatrix type="matrix" values="0 0 0 0 0.0980392 0 0 0 0 0.0980392 0 0 0 0 0.0980392 0 0 0 1 0"/>
<feBlend mode="normal" in2="BackgroundImageFix" result="effect1_dropShadow_160_30609"/>
<feBlend mode="normal" in="SourceGraphic" in2="effect1_dropShadow_160_30609" result="shape"/>
</filter>
<filter id="filter15_d_160_30609" x="15.4912" y="212.553" width="23.4355" height="23.4355" filterUnits="userSpaceOnUse" color-interpolation-filters="sRGB">
<feFlood flood-opacity="0" result="BackgroundImageFix"/>
<feColorMatrix in="SourceAlpha" type="matrix" values="0 0 0 0 0 0 0 0 0 0 0 0 0 0 0 0 0 0 127 0" result="hardAlpha"/>
<feOffset dx="6" dy="6"/>
<feComposite in2="hardAlpha" operator="out"/>
<feColorMatrix type="matrix" values="0 0 0 0 0.0980392 0 0 0 0 0.0980392 0 0 0 0 0.0980392 0 0 0 1 0"/>
<feBlend mode="normal" in2="BackgroundImageFix" result="effect1_dropShadow_160_30609"/>
<feBlend mode="normal" in="SourceGraphic" in2="effect1_dropShadow_160_30609" result="shape"/>
</filter>
<filter id="filter16_d_160_30609" x="47.0454" y="253.559" width="22.376" height="22.376" filterUnits="userSpaceOnUse" color-interpolation-filters="sRGB">
<feFlood flood-opacity="0" result="BackgroundImageFix"/>
<feColorMatrix in="SourceAlpha" type="matrix" values="0 0 0 0 0 0 0 0 0 0 0 0 0 0 0 0 0 0 127 0" result="hardAlpha"/>
<feOffset dx="6" dy="6"/>
<feComposite in2="hardAlpha" operator="out"/>
<feColorMatrix type="matrix" values="0 0 0 0 0.0980392 0 0 0 0 0.0980392 0 0 0 0 0.0980392 0 0 0 1 0"/>
<feBlend mode="normal" in2="BackgroundImageFix" result="effect1_dropShadow_160_30609"/>
<feBlend mode="normal" in="SourceGraphic" in2="effect1_dropShadow_160_30609" result="shape"/>
</filter>
<filter id="filter17_d_160_30609" x="89.5562" y="282.273" width="21.3589" height="21.3588" filterUnits="userSpaceOnUse" color-interpolation-filters="sRGB">
<feFlood flood-opacity="0" result="BackgroundImageFix"/>
<feColorMatrix in="SourceAlpha" type="matrix" values="0 0 0 0 0 0 0 0 0 0 0 0 0 0 0 0 0 0 127 0" result="hardAlpha"/>
<feOffset dx="6" dy="6"/>
<feComposite in2="hardAlpha" operator="out"/>
<feColorMatrix type="matrix" values="0 0 0 0 0.0980392 0 0 0 0 0.0980392 0 0 0 0 0.0980392 0 0 0 1 0"/>
<feBlend mode="normal" in2="BackgroundImageFix" result="effect1_dropShadow_160_30609"/>
<feBlend mode="normal" in="SourceGraphic" in2="effect1_dropShadow_160_30609" result="shape"/>
</filter>
<filter id="filter18_d_160_30609" x="137.153" y="296.451" width="20.2993" height="20.2992" filterUnits="userSpaceOnUse" color-interpolation-filters="sRGB">
<feFlood flood-opacity="0" result="BackgroundImageFix"/>
<feColorMatrix in="SourceAlpha" type="matrix" values="0 0 0 0 0 0 0 0 0 0 0 0 0 0 0 0 0 0 127 0" result="hardAlpha"/>
<feOffset dx="6" dy="6"/>
<feComposite in2="hardAlpha" operator="out"/>
<feColorMatrix type="matrix" values="0 0 0 0 0.0980392 0 0 0 0 0.0980392 0 0 0 0 0.0980392 0 0 0 1 0"/>
<feBlend mode="normal" in2="BackgroundImageFix" result="effect1_dropShadow_160_30609"/>
<feBlend mode="normal" in="SourceGraphic" in2="effect1_dropShadow_160_30609" result="shape"/>
</filter>
<filter id="filter19_d_160_30609" x="186.296" y="296.112" width="19.2397" height="19.2396" filterUnits="userSpaceOnUse" color-interpolation-filters="sRGB">
<feFlood flood-opacity="0" result="BackgroundImageFix"/>
<feColorMatrix in="SourceAlpha" type="matrix" values="0 0 0 0 0 0 0 0 0 0 0 0 0 0 0 0 0 0 127 0" result="hardAlpha"/>
<feOffset dx="6" dy="6"/>
<feComposite in2="hardAlpha" operator="out"/>
<feColorMatrix type="matrix" values="0 0 0 0 0.0980392 0 0 0 0 0.0980392 0 0 0 0 0.0980392 0 0 0 1 0"/>
<feBlend mode="normal" in2="BackgroundImageFix" result="effect1_dropShadow_160_30609"/>
<feBlend mode="normal" in="SourceGraphic" in2="effect1_dropShadow_160_30609" result="shape"/>
</filter>
<filter id="filter20_d_160_30609" x="233.448" y="281.193" width="18.2222" height="18.2224" filterUnits="userSpaceOnUse" color-interpolation-filters="sRGB">
<feFlood flood-opacity="0" result="BackgroundImageFix"/>
<feColorMatrix in="SourceAlpha" type="matrix" values="0 0 0 0 0 0 0 0 0 0 0 0 0 0 0 0 0 0 127 0" result="hardAlpha"/>
<feOffset dx="6" dy="6"/>
<feComposite in2="hardAlpha" operator="out"/>
<feColorMatrix type="matrix" values="0 0 0 0 0.0980392 0 0 0 0 0.0980392 0 0 0 0 0.0980392 0 0 0 1 0"/>
<feBlend mode="normal" in2="BackgroundImageFix" result="effect1_dropShadow_160_30609"/>
<feBlend mode="normal" in="SourceGraphic" in2="effect1_dropShadow_160_30609" result="shape"/>
</filter>
<filter id="filter21_d_160_30609" x="275.111" y="251.779" width="17.1626" height="17.1628" filterUnits="userSpaceOnUse" color-interpolation-filters="sRGB">
<feFlood flood-opacity="0" result="BackgroundImageFix"/>
<feColorMatrix in="SourceAlpha" type="matrix" values="0 0 0 0 0 0 0 0 0 0 0 0 0 0 0 0 0 0 127 0" result="hardAlpha"/>
<feOffset dx="6" dy="6"/>
<feComposite in2="hardAlpha" operator="out"/>
<feColorMatrix type="matrix" values="0 0 0 0 0.0980392 0 0 0 0 0.0980392 0 0 0 0 0.0980392 0 0 0 1 0"/>
<feBlend mode="normal" in2="BackgroundImageFix" result="effect1_dropShadow_160_30609"/>
<feBlend mode="normal" in="SourceGraphic" in2="effect1_dropShadow_160_30609" result="shape"/>
</filter>
</defs>
</svg>
