<svg width="60" height="60" viewBox="0 0 60 60" fill="none" xmlns="http://www.w3.org/2000/svg">
<mask id="mask0_57_6958" style="mask-type:luminance" maskUnits="userSpaceOnUse" x="1" y="1" width="58" height="58">
<path d="M58.1287 1.875H1.76172V58.242H58.1287V1.875Z" fill="white"/>
</mask>
<g mask="url(#mask0_57_6958)">
<path fill-rule="evenodd" clip-rule="evenodd" d="M34.1233 5.14253C33.7782 4.56736 33.2605 4.0497 32.5128 3.99219L32.7428 4.33729L32.8579 4.56736L33.2605 5.31509L33.3755 5.43012C33.6631 6.12033 33.8357 6.81054 33.8932 7.55826C33.8932 7.96088 33.7782 8.30599 33.6631 8.70861C33.4906 7.73081 32.9729 6.98309 32.3977 6.29288C31.7873 5.66797 31.0387 5.19514 30.2121 4.91246C29.0789 4.46215 27.8367 4.36197 26.646 4.62488C26.1859 4.6824 25.7833 4.91246 25.3231 5.14253C24.9205 5.3726 24.5754 5.71771 24.2303 6.00529C23.3948 6.83587 22.7475 7.83623 22.3322 8.93868C21.9871 9.80144 21.5845 10.6642 21.0668 11.4694C20.6642 12.1596 20.089 12.7923 19.5139 13.31L17.9034 14.4028C16.9577 14.9977 16.0367 15.631 15.1426 16.3009C13.8197 17.4512 12.8419 19.0042 12.3242 20.7297C12.0941 21.5925 11.9216 22.5128 12.0366 23.3755C12.1517 23.8357 12.2667 24.2383 12.4968 24.6409V25.101C12.2667 26.1939 12.2092 27.3442 12.5543 28.437C12.9329 29.7272 13.5797 30.9228 14.4523 31.9456L15.2576 33.0384C15.6027 33.6136 15.8903 34.2463 15.9478 34.9365C15.9478 35.4542 15.7752 35.9143 15.3726 36.2594C15.0631 36.5313 14.6846 36.7127 14.2788 36.7838C13.873 36.8548 13.4554 36.8127 13.0719 36.662L12.7843 36.4895L12.5543 36.3744L12.4968 36.4895C12.4392 36.547 12.3817 36.662 12.4392 36.7771L12.8419 37.5248C13.187 37.9849 13.5896 38.33 14.1072 38.5601C14.5099 38.7902 14.97 38.8477 15.4301 38.7326C15.7177 38.6751 15.9478 38.5601 16.1779 38.3875C16.1779 38.9627 16.3504 39.5379 16.523 40.0555C16.753 40.6882 17.0981 41.3209 17.6158 41.7811C18.0759 42.2412 18.6511 42.4713 19.2263 42.6438C19.7439 42.8164 20.2616 42.8164 20.7792 42.7013C20.8943 42.6438 20.8943 42.5863 20.8943 42.4713L20.7217 42.0686L20.6642 41.9536L20.2041 40.8033C21.2394 41.551 22.4472 41.8961 23.7126 42.0111C24.5179 42.0686 25.3806 41.9536 26.1284 41.666C26.3009 41.6085 26.531 41.4935 26.5885 41.3209C26.7035 41.1484 26.5885 40.9758 26.531 40.8033L26.3009 39.9405L26.2434 39.768C26.761 40.1131 27.2787 40.3431 27.9114 40.3431C28.6016 40.3431 29.3493 40.0555 29.7519 39.4804L29.9245 39.4228C29.6368 36.8858 29.038 34.3938 28.1415 32.0031C27.7526 30.9651 27.2714 29.9641 26.7035 29.0122L26.5885 28.6671C26.5885 27.8044 26.4735 26.8266 25.9558 26.1364C26.3584 25.5037 26.4159 24.6984 26.4735 24.0082C26.4735 23.433 26.4735 22.8579 26.1859 22.3402L26.4159 22.2827L26.8761 22.2252C26.9911 22.1677 27.0486 21.9951 27.1062 21.8801C27.4913 20.2816 28.0707 18.7363 28.8317 17.2787L29.2343 16.4734C29.3493 16.3009 29.3493 16.1283 29.4068 15.8983V15.6682L29.2918 14.863L29.2343 14.3453L30.3846 14.6904H30.9598C33.8668 14.19 36.8308 14.1125 39.76 14.4603L40.1626 14.5754L40.4502 14.6904C40.5652 14.6904 40.7378 14.6329 40.7953 14.5179C40.9678 14.3453 41.0253 14.1152 41.0829 13.8852L41.2554 14.0002L41.7731 14.4028L42.1757 14.6329C42.4411 14.6825 42.7112 14.7018 42.9809 14.6904L43.9012 15.6107L43.9587 15.6682C45.1708 17.0541 46.2135 18.5795 47.0647 20.2121C47.2947 20.3846 47.5823 20.2696 47.6973 20.0395C48.1 19.1192 48.1575 18.0839 47.9849 17.1061C47.6654 15.6456 46.902 14.3196 45.7993 13.31C45.4542 12.9074 44.994 12.5623 44.5339 12.2172L42.1182 10.9518C40.9103 10.4341 39.6449 10.0315 38.3795 9.80144C36.9416 9.51385 35.5037 9.51385 34.0082 9.57137C34.6409 8.93868 34.8135 8.07592 34.8135 7.21316C34.8135 6.46543 34.5259 5.77522 34.1233 5.14253ZM19.2838 15.3806C19.974 14.5754 20.6642 13.7701 21.1819 12.7923L20.2616 13.7701C19.6864 14.2878 19.0537 14.6329 18.421 15.0355L17.7883 15.4381L17.6158 15.4956C16.8681 15.9558 16.0628 16.4734 15.4301 17.0486C14.1648 18.1414 13.302 19.6369 12.8994 21.2474C12.7268 22.1101 12.6118 23.0304 12.8419 23.8932C13.187 22.8579 13.7046 21.8226 14.2798 20.9023C15.0275 19.7519 15.9478 18.6591 16.9256 17.6813L18.0184 16.5885L19.2838 15.3806Z" fill="#262626"/>
<path d="M35.7911 10.3781C37.4016 10.4356 39.0121 10.7232 40.6226 11.2408C42.8739 11.8764 44.8795 13.18 46.3743 14.9794C47.4671 16.4174 48.1573 18.1429 48.3874 19.9259C48.6978 21.8474 48.7366 23.8029 48.5024 25.7352L48.2149 27.6908L47.9848 28.8411C47.9273 28.9562 47.9273 28.9562 47.8122 28.9562C47.6972 28.7261 47.6972 28.496 47.6972 28.2659C47.6397 27.4032 47.7547 26.5979 47.8122 25.7352C47.8698 24.3548 47.9848 22.9744 47.8698 21.5939L47.5246 19.0057C47.122 17.3952 46.3743 15.8997 45.224 14.6919C44.1886 13.6566 42.9233 12.7938 41.6004 12.2186C40.335 11.701 39.0696 11.3559 37.7467 11.1258C36.7114 10.9532 35.6761 10.8957 34.6408 10.8957C32.0885 10.8539 29.5636 11.426 27.2786 12.5637C26.5308 13.0814 25.8406 13.7141 25.2654 14.4043C23.4956 16.7275 22.401 19.494 22.102 22.3992C22.0445 23.7796 22.102 25.1025 22.5621 26.4254L22.9648 27.2882L23.655 27.3457L23.7125 27.5182C23.5399 27.6333 23.3099 27.6333 23.0798 27.6908C22.5046 27.8058 21.9294 28.0359 21.4118 28.381C21.0092 28.6686 20.6065 29.0137 20.3765 29.4738C20.0889 30.049 20.2039 30.7392 20.319 31.3719C20.6065 32.4647 21.2968 33.5 22.217 34.1902C22.8497 34.7079 23.655 34.9955 24.4602 35.1105C25.0354 35.2255 25.6106 35.1105 26.1857 35.053C26.4733 35.2831 26.6459 35.7432 26.8184 36.0308L27.8537 37.5838C28.7894 38.9136 30.1163 39.9189 31.6499 40.4596C32.9153 40.9773 34.2381 41.2649 35.561 41.5524L37.9193 42.0126L38.8971 42.3002V42.5302H38.2068C36.9139 42.4581 35.6268 42.3044 34.3532 42.0701C32.6427 41.7297 31.0066 41.0869 29.5217 40.172C28.889 39.7694 28.3139 39.2518 27.8537 38.6191C28.2521 41.0164 27.9319 43.478 26.9334 45.6937C26.0707 47.2467 24.6328 48.4545 22.9072 48.9722C22.7347 49.0297 22.5046 49.0872 22.3321 49.0297C22.217 49.0297 22.217 48.9722 22.217 48.8571C22.2745 48.6846 22.4471 48.5696 22.5621 48.512C23.2523 48.0519 24.0576 47.7068 24.7478 47.1891C25.4955 46.5564 26.1282 45.8662 26.5308 45.0035C26.8759 44.1407 27.106 43.1629 27.221 42.1851C27.3361 41.4374 27.3936 40.6897 27.3361 39.8844L27.106 37.6988L26.0707 35.6282L24.9779 35.8582C24.1336 35.8828 23.2965 35.6957 22.5431 35.3139C21.7896 34.9322 21.1436 34.3679 20.6641 33.6726C19.9143 32.7227 19.5088 31.5467 19.5137 30.3366C19.5137 29.8189 19.6863 29.3013 19.9739 28.8986C20.2614 28.496 20.6641 28.1509 21.0667 27.9208C21.3543 27.6908 21.7569 27.5757 22.102 27.4607L21.5843 26.0803C21.2968 24.8149 21.2968 23.492 21.4693 22.2266C21.846 19.0857 23.102 16.115 25.0929 13.6566C25.6106 13.0814 26.1282 12.5637 26.7609 12.1611C27.1635 11.931 27.5661 11.8735 27.9112 11.6434C30.3845 10.5506 33.0878 10.2055 35.7911 10.3781Z" fill="#262626"/>
<path d="M34.6401 10.8942C37.03 10.8053 39.4091 11.2575 41.5997 12.2171C42.9226 12.7922 44.188 13.655 45.2233 14.6903C46.3736 15.8982 47.1214 17.3936 47.524 19.0041L47.8691 21.5924C47.9841 22.9728 47.8691 24.3532 47.8116 25.7336C47.754 26.5964 47.639 27.4016 47.6965 28.2644C47.6965 28.4944 47.6965 28.7245 47.8116 28.9546L47.754 30.1049C47.639 30.3925 47.639 30.6801 47.639 31.0252C47.524 32.4056 47.524 33.8436 47.2939 35.2815C47.2364 35.9717 47.1214 36.7194 46.8338 37.3521C46.6612 37.8698 46.3736 38.3299 45.971 38.7325C45.2808 39.4803 44.418 40.1129 43.4978 40.6306C42.4049 41.2633 41.2546 41.5509 40.1618 42.011C39.8742 42.126 39.5866 42.2411 39.414 42.4712C39.8742 42.5287 40.2768 42.4712 40.7369 42.3561C40.4493 43.0463 40.3918 43.7365 40.3918 44.4267C40.3918 44.7143 40.3343 45.0594 40.4493 45.347C40.6219 45.6346 40.9095 45.8647 41.1971 46.0372L43.2102 46.785C44.4756 47.2451 45.6834 47.8203 46.9488 48.3379C47.0638 48.568 47.2364 48.7405 47.2939 49.0281C47.639 49.6608 47.6965 50.351 47.4665 51.0412C47.1789 51.789 46.6037 52.4216 45.9135 52.8243C44.9932 53.457 43.8429 53.9171 42.75 54.2047C38.2778 55.1602 33.6409 55.0221 29.2335 53.8021C28.0831 53.3994 26.9328 52.9968 25.8975 52.4216C25.0922 51.9615 24.2295 51.3863 23.5968 50.6386C23.2517 50.1785 22.9641 49.5458 22.9066 48.9706C24.2534 48.5595 25.4454 47.7527 26.3276 46.6552C27.2097 45.5576 27.7413 44.22 27.8531 42.8163C28.0831 41.4358 28.0831 39.9979 27.8531 38.6175C28.3132 39.2502 28.8884 39.7678 29.5211 40.1705L31.074 40.9757C33.329 41.9485 35.7509 42.4759 38.2062 42.5287H38.8964V42.2986L37.9186 42.011L35.5604 41.5509C34.2375 41.2633 32.9146 40.9757 31.6492 40.458C30.9015 40.1129 30.0962 39.7103 29.406 39.2502C28.8309 38.7325 28.3132 38.2149 27.8531 37.5822L26.8177 36.0292C26.6452 35.7416 26.4726 35.2815 26.1851 35.0514C25.6099 35.1089 25.0347 35.224 24.4595 35.1089C23.6543 34.9939 22.8491 34.7063 22.2164 34.1887C21.2972 33.4776 20.6317 32.4893 20.3183 31.3703C20.2033 30.7376 20.0882 30.0474 20.3758 29.4722C20.6059 29.0121 21.0085 28.667 21.4111 28.3794C21.9288 28.0343 22.5039 27.8042 23.0791 27.6892C23.3092 27.6317 23.5393 27.6317 23.7118 27.5167L23.6543 27.3441L22.9641 27.2866L22.5615 26.4238C22.1013 25.1009 22.0438 23.778 22.1588 22.3976C22.441 19.4981 23.5155 16.7322 25.2648 14.4027C25.84 13.7125 26.5302 13.0798 27.2779 12.5622C29.5579 11.4045 32.0831 10.8127 34.6401 10.8366V10.8942Z" fill="#FFDECC"/>
<path d="M22.2754 29.7578C22.5055 29.7578 22.678 29.7578 22.9081 29.8728C23.1957 29.9304 23.5408 30.1029 23.7133 30.333C23.8284 30.5055 23.8284 30.7356 23.7133 30.9082C23.4257 31.2533 23.0231 31.4833 22.793 31.8284C23.1382 32.0585 23.5983 32.1735 24.0009 32.3461C24.231 32.4036 24.461 32.5186 24.6336 32.6912L24.6911 32.8637L24.231 32.7487L22.8506 32.3461C22.6205 32.2886 22.3904 32.1735 22.3329 31.9435C22.2754 31.7709 22.3904 31.5408 22.5055 31.3683L23.3682 30.6206C23.1382 30.218 22.5055 30.1604 22.2754 29.7578ZM47.7556 30.1029L47.8706 30.2755L47.9856 31.1957C48.1049 32.902 48.0664 34.6156 47.8706 36.3148C47.7556 36.9475 47.583 37.6377 47.2954 38.2129C45.7694 40.2095 43.6258 41.6453 41.1986 42.2966C41.1411 43.1018 41.026 44.0796 41.0835 44.9999L41.3711 45.2875C41.8313 45.6326 42.4064 45.8051 42.9241 45.9777C44.2695 46.4072 45.5776 46.9458 46.8353 47.5882C47.2379 47.8182 47.583 48.1058 47.8706 48.4509C47.583 48.5085 47.2954 48.3934 46.9503 48.3359C45.6849 47.8182 44.4771 47.2431 43.2117 46.7829L41.1986 46.0352C40.911 45.8627 40.6234 45.6326 40.4509 45.345C40.3358 45.0574 40.3933 44.7123 40.3933 44.4247C40.3933 43.7345 40.4509 43.0443 40.7384 42.3541C40.2783 42.4691 39.8757 42.5267 39.4155 42.4691C39.5881 42.2391 39.8757 42.124 40.1633 42.009C41.2561 41.5489 42.4064 41.2613 43.4993 40.6286C44.4196 40.1109 45.2823 39.4782 45.9725 38.7305C46.3751 38.3279 46.6627 37.8678 46.8353 37.3501C47.1229 36.7174 47.2379 35.9697 47.2954 35.2795C47.5255 33.8415 47.5255 32.4036 47.6405 31.0232C47.6405 30.6781 47.6405 30.3905 47.7556 30.1029Z" fill="#262626"/>
<path d="M45.7988 24.1238C46.2589 24.0662 46.7191 24.1813 47.0642 24.4689C47.2367 24.6414 47.4093 24.8715 47.4093 25.1015C47.4668 25.3891 47.1792 25.6767 46.8916 25.6767C46.6616 25.6192 46.5465 25.5042 46.4315 25.3316L45.8563 24.929C46.374 25.8493 46.0864 27.1147 45.2811 27.7473C44.8785 28.0924 44.2458 28.2075 43.8432 27.8049C43.4981 27.5173 43.3831 27.1147 43.3831 26.6545C43.268 26.9421 43.0955 27.1722 43.038 27.4598C42.9805 27.5748 42.9805 27.6898 42.8654 27.6898C42.7504 27.4022 42.8079 27.0571 42.9229 26.712C43.268 25.7918 43.9007 24.9865 44.7635 24.5264C45.0511 24.2963 45.3962 24.1813 45.7988 24.1238ZM33.6051 24.7564C35.1581 24.814 36.6536 25.7918 37.2862 27.1722C37.4013 27.2872 37.5163 27.5173 37.3438 27.6898C37.1712 27.6898 37.0562 27.4598 36.9411 27.3447C36.7111 26.8846 36.366 26.5395 35.9633 26.2519C36.0784 26.8846 36.0784 27.4598 35.7333 28.0349C35.4457 28.4951 34.813 28.7827 34.2953 28.7251C33.8927 28.6101 33.4901 28.4376 33.2025 28.0924C32.8574 27.7473 32.7424 27.1722 32.7424 26.712C32.7424 26.3094 32.9149 25.9643 33.0875 25.6767C32.2822 25.8493 31.477 26.1944 30.8443 26.712C30.6718 26.7696 30.5567 26.8846 30.3842 26.8846C30.1541 26.8271 30.0391 26.6545 30.0391 26.4244C30.0391 26.2519 30.1541 26.0793 30.2691 25.9643C30.7293 25.6192 31.1894 25.2741 31.7646 25.044C32.3398 24.814 32.9724 24.6989 33.6051 24.7564Z" fill="#262626"/>
<path d="M34.1816 18.6003C35.0443 18.6578 36.0221 18.8879 36.7123 19.463C36.9424 19.6356 37.1725 19.8657 37.23 20.0957C37.2875 20.2683 37.2875 20.3833 37.115 20.4408C36.9424 20.4408 36.7698 20.2683 36.6548 20.1532C36.0221 19.6931 35.2744 19.4055 34.4692 19.4055C34.009 19.4055 33.6064 19.5206 33.1463 19.6356C32.2835 19.8081 31.4783 20.2683 30.9606 20.9585C30.788 21.131 30.673 21.3611 30.3854 21.4186C30.0978 21.4761 29.8103 21.2461 29.8103 20.9585C29.7527 20.7284 29.9253 20.4984 30.0403 20.3258C30.7305 19.463 31.7658 18.8879 32.8587 18.6578C33.2613 18.5428 33.7214 18.5428 34.1816 18.6003ZM45.9726 19.1755C46.2602 19.2905 46.5478 19.5781 46.7203 19.8081C46.8929 19.9807 47.0079 20.2108 47.0079 20.4408C47.0079 20.7859 46.6628 21.016 46.3177 20.901C46.0301 20.7859 45.9726 20.4984 45.7425 20.2683C45.5125 20.0957 45.2249 19.8657 44.9948 19.8081C44.3046 19.5781 43.6144 19.8657 43.1543 20.3258L42.6366 20.8435C42.6366 20.4408 42.8667 20.0957 43.1543 19.8657C43.8445 19.1179 44.9948 18.8303 45.9726 19.1755Z" fill="#262626"/>
<path d="M42.2329 31.7734C42.2329 31.946 42.1179 32.1185 42.0029 32.2911C41.7728 32.6362 41.3702 32.8663 40.9676 32.9813C40.68 33.0388 40.4499 32.8663 40.2198 32.9813C39.9898 32.9813 39.7597 33.0388 39.5296 32.9238C39.4146 32.8663 39.4146 32.6937 39.5296 32.5787C39.7022 32.3486 39.9898 32.1761 40.2198 32.1761C40.4499 32.1185 40.6225 32.1185 40.795 32.2911L40.8525 32.6937C41.1401 32.5787 41.2552 32.4061 41.4852 32.2336L42.2329 31.7734Z" fill="#262626"/>
<path d="M34.6982 34.875C34.8707 34.875 34.9857 34.99 35.1008 35.1051L35.8485 35.5077C36.4812 35.7953 37.1714 35.9678 37.8041 36.1404C38.6669 36.428 39.5296 36.4855 40.3924 36.4855C41.0826 36.543 41.7153 36.6005 42.348 36.543L42.578 36.658C41.5427 37.1757 40.2198 37.2907 39.0695 37.2332C37.7466 37.1757 36.4237 36.7731 35.2733 36.1979C34.9282 35.9678 34.5256 35.7378 34.4681 35.2776C34.4106 35.1051 34.5256 34.875 34.6982 34.875Z" fill="#262626"/>
<path d="M36.539 9.57456C38.4682 9.68489 40.3601 10.153 42.1182 10.955C42.9234 11.3576 43.7862 11.7602 44.5339 12.2779C44.994 12.5655 45.4542 12.9106 45.7993 13.3132L47.0646 14.7511C46.547 14.9812 46.0293 14.9237 45.5117 14.8662C44.5339 14.7511 43.5561 14.6361 42.5783 14.6936L42.1182 14.6361L41.7155 14.3485L41.0253 13.8884C41.0253 14.1184 40.9678 14.291 40.8528 14.5211C40.7377 14.6361 40.6227 14.6936 40.4502 14.6936C40.2201 14.6361 40.0475 14.5211 39.8175 14.5211C36.8567 14.0847 33.844 14.143 30.9023 14.6936H30.2696L29.2343 14.3485C29.2918 14.8662 29.4643 15.3838 29.4068 15.844C29.3493 16.074 29.3493 16.3041 29.2343 16.4766C28.8317 17.2819 28.3715 18.0296 28.0264 18.8924C27.6238 19.8702 27.2787 20.9055 27.0486 21.9408C27.0486 22.0558 26.9911 22.1709 26.8761 22.2284L26.1859 22.3434C26.4734 22.8611 26.531 23.4938 26.4734 24.0689C26.4159 24.7591 26.3009 25.5644 25.9558 26.1395C26.3584 26.6572 26.531 27.3474 26.531 28.0376C26.5885 29.1304 26.531 30.1658 26.1283 31.2011C26.0133 31.4311 25.8408 31.7187 25.5532 31.8338C25.4957 31.8913 25.3231 31.8913 25.3231 31.7762C25.2081 31.5462 25.2081 31.2586 25.1506 31.0285C25.0355 30.1658 24.6329 29.3605 24.0002 28.7278C23.5401 28.3252 23.0224 27.9226 22.5048 27.635C22.1597 27.52 21.8721 27.4049 21.5845 27.1749L21.2394 26.7147C20.5492 24.8742 20.3191 22.8611 20.5492 20.9055C20.7937 18.6135 21.5189 16.3988 22.6773 14.406C23.2525 13.4857 23.9427 12.6805 24.6904 11.9328C25.2656 11.4151 25.8408 10.955 26.4734 10.6099L27.2787 10.3223L29.1192 9.6896L30.2121 9.57456H32.6853C34.0082 9.57456 35.2161 9.45953 36.539 9.57456Z" fill="#262626"/>
</g>
</svg>
