<svg width="60" height="60" viewBox="0 0 60 60" fill="none" xmlns="http://www.w3.org/2000/svg">
<mask id="mask0_57_7013" style="mask-type:luminance" maskUnits="userSpaceOnUse" x="1" y="1" width="58" height="58">
<path d="M58.2381 1.875H1.87109V58.242H58.2381V1.875Z" fill="white"/>
</mask>
<g mask="url(#mask0_57_7013)">
<path d="M32.7787 10.4046C35.1369 10.7497 37.38 11.67 39.2781 13.1079C40.8886 14.3158 42.154 15.9262 43.0167 17.7668C43.7645 19.3773 44.1671 21.2178 44.1096 23.0009C44.052 23.8636 43.937 24.7264 43.6494 25.5316H43.5344L43.5919 24.3238C43.6494 22.5982 43.4769 20.9302 42.8442 19.3198C42.269 17.5942 41.2337 16.0413 39.9683 14.7759C37.5526 12.4752 34.3316 11.2098 30.9956 11.1523C28.8258 11.1164 26.6774 11.5863 24.7207 12.5248C22.7639 13.4632 21.0526 14.8444 19.7222 16.5589C18.0189 18.8605 17.2021 21.6989 17.4215 24.5538L17.5366 25.9918C17.9967 25.9918 18.6294 25.9918 18.9745 26.3944L18.8019 26.5669L17.8241 26.6245C17.1339 26.682 16.4437 26.912 15.9261 27.3722C15.3539 27.9865 15.0089 28.778 14.9483 29.6154C14.6607 31.4559 15.6385 33.354 17.1915 34.3893C18.1117 34.9645 19.2621 35.2521 20.3549 34.9069C20.585 34.7919 20.8726 34.6194 21.1602 34.7344C21.3327 34.7919 21.3902 34.9645 21.4477 35.137C22.6177 37.4896 24.4075 39.4783 26.6243 40.8887C27.0844 41.2914 27.6596 41.6365 28.2348 41.9241C29.2701 42.3842 30.4204 42.7293 31.5133 43.0169L33.3538 43.477C33.6414 43.5345 33.8715 43.5345 34.1015 43.6496L33.8715 43.7071C32.4335 43.8221 31.1106 43.5345 29.7302 43.1319C29.04 42.9594 28.4073 42.7293 27.7746 42.4417C25.9674 41.5212 24.3329 40.2953 22.9432 38.8181L23.0582 40.4286C23.1157 41.4064 23.0582 42.4417 22.7131 43.4195C22.4831 44.1097 22.0804 44.7999 21.6203 45.3751C21.0451 45.9503 20.3549 46.4679 19.6647 46.8705C19.0895 47.2732 18.4568 47.6758 17.8241 47.9059L16.9039 48.1934L17.4215 47.6758L19.2046 46.5254L20.4699 45.5477C21.4403 44.7215 22.0914 43.5821 22.3105 42.3267C22.4255 41.5214 22.4255 40.7162 22.4255 39.8534V38.3005C21.8504 37.4952 21.1602 36.6325 20.8726 35.6547C19.8948 36.1148 18.6869 36.0573 17.7091 35.5972C16.7313 35.1945 15.8686 34.5043 15.2359 33.6991C14.5457 32.7213 14.143 31.6285 14.028 30.4781C13.913 29.3278 14.143 28.1774 14.8908 27.2571C15.4084 26.682 16.1561 26.2218 16.9039 26.0493C16.6738 25.244 16.5588 24.3813 16.5588 23.5185C16.6061 21.6168 17.056 19.7466 17.8789 18.0314C18.7018 16.3163 19.8789 14.795 21.3327 13.568C22.9033 12.2528 24.7378 11.2898 26.7124 10.7441C28.6869 10.1984 30.7555 10.0826 32.7787 10.4046Z" fill="#262626"/>
<path d="M39.9679 14.7817C41.2333 16.0471 42.2686 17.6001 42.8438 19.3256C43.4765 20.9361 43.6491 22.6041 43.5915 24.3296L43.534 25.5375L43.2464 26.4002L43.1314 27.148L43.2464 30.3689C43.2464 31.5768 43.3039 32.7847 43.1889 33.9925L43.0164 36.6958C42.9013 37.6161 42.6137 38.4789 42.2111 39.2841C41.5784 40.3194 40.7157 41.1822 39.6804 41.8149C38.9326 42.275 38.1274 42.5051 37.3221 42.7352L35.1365 43.3679L34.1587 43.5404C34.1587 43.5979 34.2162 43.6554 34.3312 43.6554C34.7914 43.943 35.309 43.943 35.8267 43.8855C35.6541 44.2881 35.5966 44.6908 35.7117 45.1509C35.8842 45.5535 36.3444 45.7836 36.6895 45.9561C37.3797 46.3012 38.0699 46.3588 38.7601 46.4738C39.1627 46.8189 39.5653 47.279 39.6804 47.8542C39.7954 48.3143 39.7954 48.7745 39.5653 49.1771C39.2777 49.7523 38.7601 50.2124 38.1849 50.5C37.4372 50.9601 36.6319 51.3052 35.7692 51.5353C31.5699 52.5405 27.1904 52.5208 23.0003 51.4778C22.0225 51.2477 21.1023 50.9601 20.2395 50.5C19.5493 50.1549 18.9166 49.7523 18.399 49.2346C18.1114 48.832 17.8813 48.4294 17.8238 47.9117C18.4565 47.6817 19.0892 47.279 19.6643 46.8764C20.3545 46.4738 21.0447 45.9561 21.6199 45.381C22.0801 44.8058 22.4827 44.1156 22.7128 43.4254C23.0579 42.4476 23.1154 41.4123 23.0579 40.4345L22.9428 38.824L24.2082 40.1469C25.301 41.0096 26.5089 41.8724 27.7743 42.4476C28.407 42.7352 29.0397 42.9652 29.7299 43.1378C31.1103 43.5404 32.4332 43.828 33.8711 43.713L34.1012 43.6554C33.8711 43.5404 33.641 43.5404 33.3535 43.4829L31.5129 43.0228C30.4201 42.7352 29.2697 42.3901 28.2344 41.9299L26.5664 40.9521C25.9337 40.4345 25.2435 39.9743 24.6683 39.3992C23.3395 38.1929 22.2471 36.7495 21.4474 35.1429C21.3899 34.9703 21.3323 34.7978 21.1598 34.7403C20.8722 34.6252 20.5846 34.7978 20.3545 34.9128C19.2617 35.2579 18.1114 34.9703 17.1911 34.3952C16.4145 33.8825 15.7942 33.1657 15.3985 32.3235C15.0027 31.4813 14.8468 30.5463 14.9479 29.6212C15.0054 28.816 15.3505 28.0107 15.9257 27.378C16.4434 26.9179 17.1336 26.6878 17.8238 26.6303L18.8016 26.5728L18.9741 26.4002C18.629 25.9976 17.9963 25.9976 17.5362 25.9976L17.4212 24.5597C17.2017 21.7048 18.0185 18.8664 19.7219 16.5648C21.0522 14.8503 22.7635 13.4691 24.7203 12.5306C26.677 11.5922 28.8254 11.1223 30.9952 11.1582C34.3312 11.2157 37.5522 12.4811 39.9679 14.7817Z" fill="#FFDECC"/>
<path d="M43.2473 26.3984C43.4199 26.3984 43.4199 26.6285 43.4774 26.7435C43.6499 27.3762 43.7074 28.0664 43.765 28.6991L43.88 29.907C43.9375 31.1724 43.995 32.3802 43.9375 33.6456C43.88 34.8535 43.88 36.1764 43.6499 37.3842C43.4056 38.6367 42.8585 39.8104 42.0565 40.8029C41.2545 41.7954 40.2218 42.5766 39.0485 43.0785C38.1858 43.4811 37.2655 43.7111 36.2877 43.8262V44.6889C36.3452 44.8615 36.4603 44.919 36.5753 45.034C37.2655 45.3791 37.8982 45.4942 38.6459 45.6667C39.3361 45.8393 40.0263 45.9543 40.7165 46.2994C40.544 46.472 40.3139 46.5295 40.0839 46.5295C39.6812 46.587 39.2211 46.472 38.761 46.472C38.0707 46.3569 37.3805 46.2994 36.6903 45.9543C36.3452 45.7818 35.8851 45.5517 35.7125 45.1491C35.5975 44.6889 35.655 44.2863 35.8276 43.8837C35.3099 43.9412 34.7923 43.9412 34.3321 43.6536C34.2171 43.6536 34.1596 43.5961 34.1596 43.5386L35.1374 43.366L37.323 42.7334C38.1283 42.5033 38.9335 42.2732 39.6812 41.8131C40.7165 41.1804 41.5793 40.3176 42.212 39.2823C42.6146 38.4771 42.9022 37.6143 43.0172 36.694L43.1898 33.9907C43.3048 32.7829 43.2473 31.575 43.2473 30.3671L43.1323 27.1462L43.2473 26.3984ZM16.9044 27.9514C17.3645 27.9514 17.8822 28.0089 18.2273 28.354C18.5149 28.5841 18.8024 28.8717 18.9175 29.2168C18.975 29.3893 18.9175 29.5619 18.8024 29.6769L18.0547 30.1371C17.6521 30.4822 17.6521 31.2299 18.0547 31.575C18.3998 31.8626 18.86 32.0351 19.2626 32.2077C19.3776 32.2077 19.5502 32.2652 19.6077 32.3802C19.5502 32.4953 19.4351 32.5528 19.3201 32.5528C18.7449 32.5528 18.1698 32.3802 17.7096 32.0351C17.422 31.8626 17.2495 31.575 17.192 31.2874C17.0769 30.8273 17.0769 30.3096 17.422 29.907C17.6521 29.5619 18.0547 29.3893 18.4573 29.2168C18.2273 28.9292 18.0547 28.5841 17.6521 28.4691C17.2495 28.2965 16.7893 28.2965 16.3867 28.1815L16.9044 27.9514Z" fill="#262626"/>
<path d="M41.6933 24.2734C41.9234 24.2734 42.1535 24.2734 42.2685 24.446C42.4986 24.6185 42.4986 25.0212 42.211 25.1937C42.0384 25.3087 41.8659 25.3087 41.6358 25.3087L40.6005 25.5388C40.6005 25.9414 40.543 26.4016 40.3704 26.8042C40.2554 27.0918 40.0253 27.3219 39.7953 27.4944C39.4502 27.667 39.0475 27.5519 38.8175 27.2643L38.6449 26.8042C38.4724 26.9768 38.3573 27.1493 38.1273 27.2643C37.9547 27.3219 37.8972 27.2643 37.8972 27.0918C37.9547 26.7467 38.1273 26.4591 38.3573 26.229C38.963 25.3902 39.8036 24.7498 40.773 24.3885L41.6933 24.2734ZM27.7741 25.0787C28.4068 25.0787 28.982 25.1937 29.5572 25.3087C30.3624 25.5388 31.1677 25.7689 31.8579 26.3441C32.0304 26.5166 32.318 26.6892 32.3755 26.9192C32.3755 27.0343 32.3755 27.0918 32.2605 27.0918L31.6278 26.8042C31.0526 26.5166 30.3624 26.3441 29.6722 26.229C29.5572 26.7467 29.4421 27.2643 29.097 27.7245C28.867 27.9545 28.5794 28.0696 28.2343 28.0696C27.7741 28.0121 27.314 27.782 27.0264 27.4369C26.7388 27.0343 26.6813 26.6316 26.6238 26.114L25.8185 26.3441C25.646 26.4016 25.4734 26.4591 25.3009 26.4016C25.0133 26.3441 24.8983 26.0565 24.9558 25.7689C25.0133 25.5388 25.2434 25.4238 25.4734 25.3663C26.1636 25.0787 27.0264 25.0212 27.7741 25.0787Z" fill="#262626"/>
<path d="M29.9606 18.5791C30.8808 18.6366 31.8586 18.9817 32.6064 19.5569C32.7789 19.7294 33.009 19.8444 33.0665 20.0745C33.124 20.1895 33.009 20.3621 32.8939 20.3046C32.4338 20.2471 32.0312 20.017 31.571 19.902C31.1684 19.7294 30.7083 19.6144 30.2481 19.6144C29.8455 19.5569 29.3854 19.6144 28.9828 19.6719C28.12 19.7869 27.2572 20.1895 26.5095 20.5922L25.3017 21.1098L25.2441 21.0523C25.3017 20.8222 25.4167 20.5346 25.5892 20.3621C25.9343 19.7869 26.567 19.4418 27.1422 19.1542C28.005 18.7516 28.9828 18.5215 29.9606 18.5791ZM41.1189 18.8091C41.4065 18.9242 41.7516 19.0967 41.9817 19.3843C42.2117 19.6144 42.2693 19.902 42.2117 20.2471L40.8888 19.8444C40.4862 19.7294 40.1411 19.7869 39.7385 19.7294C39.3359 19.7294 38.8757 19.7869 38.5306 20.017L37.7829 20.4771H37.6104C37.5528 20.3046 37.6104 20.132 37.7254 20.017C38.013 19.4993 38.4731 19.1542 38.9908 18.9817C39.681 18.7516 40.3712 18.6366 41.1189 18.8091Z" fill="#262626"/>
<path d="M37.0918 31.6328V31.6903C36.8618 32.1505 36.4591 32.5531 35.9415 32.7256C35.7689 32.7832 35.5389 32.7832 35.4238 32.6681V32.4381C35.8264 32.1505 36.3441 31.9204 36.8042 31.7478L37.0918 31.6328Z" fill="#262626"/>
<path fill-rule="evenodd" clip-rule="evenodd" d="M29.0403 33.6428L28.235 33.4128H28.1775C28.0625 33.3553 27.8899 33.3553 27.8324 33.4703C27.7749 33.5278 27.8324 33.6428 27.8899 33.6428L28.235 33.8154L28.3501 33.8729C29.6726 34.5409 31.088 35.0062 32.5488 35.2533C32.5488 35.656 32.6639 36.0586 32.9515 36.4037C33.239 36.8063 33.6417 37.1514 34.1593 37.324C34.7345 37.554 35.3672 37.4965 35.9424 37.2664C36.5175 37.0364 36.9777 36.5762 37.2077 36.0011C37.3228 35.771 37.3228 35.4834 37.3228 35.2533L38.3581 34.9082V34.8507L38.4731 34.7357C37.9171 34.7303 37.3611 34.7303 36.8051 34.7357C35.1534 34.8794 33.4899 34.802 31.8586 34.5056L29.6155 33.8729L29.5004 33.8154L29.0403 33.6428ZM33.009 35.3109C33.0665 35.886 33.5266 36.3462 34.0443 36.6337C34.7345 37.1514 35.8848 36.9213 36.345 36.1736C36.5175 35.9435 36.5751 35.656 36.6326 35.3684V35.3109L35.1371 35.4259L35.1946 35.4834C35.1946 35.656 35.2522 35.771 35.1371 35.9435C35.0221 36.1161 34.792 36.1161 34.7345 35.9435C34.6195 35.771 34.6195 35.5984 34.677 35.4259C34.1981 35.3817 33.7188 35.3434 33.239 35.3109H33.009Z" fill="#262626"/>
<path d="M27.3151 7.99219H29.6158C32.4341 8.10722 35.195 8.62488 37.8983 9.25757C39.5088 9.66019 41.0042 10.1778 42.4421 10.9831C43.1899 11.4432 43.9951 12.0184 44.5703 12.7086C45.2605 13.4563 45.7206 14.3766 45.8932 15.3544C46.1233 16.5623 46.1233 17.8276 45.7206 19.0355C45.433 19.8983 44.9154 20.761 44.1677 21.3362C43.1324 22.199 41.8095 22.7741 40.4866 22.8317C40.3715 22.8892 40.2565 22.8317 40.2565 22.6591L40.7166 21.7388C40.1002 22.3429 39.352 22.7957 38.531 23.0617C38.3009 23.1192 37.9558 23.1768 37.7257 23.0617V22.7741C37.7257 21.9114 37.6682 21.1061 37.4381 20.3009C37.2656 19.3806 36.8054 18.6329 36.4028 17.8276C36.5179 18.6904 36.4603 19.6107 36.2878 20.4734C36.1152 21.2787 35.7701 21.9689 35.195 22.5441C35.0799 22.7741 34.7923 22.8317 34.5623 22.7166L34.4472 22.314C34.3322 21.6813 34.0446 21.1061 33.757 20.531C33.2394 19.3806 32.4916 18.4028 31.6289 17.4825C30.3696 16.2235 28.8873 15.2093 27.2576 14.4916C27.3422 16.5025 27.1486 18.5155 26.6824 20.4734C26.4523 21.2787 26.1072 22.0839 25.5896 22.7741C25.417 23.0042 25.1869 23.3493 24.8994 23.4643H24.4967C24.5543 22.7741 24.5543 22.0839 24.4392 21.3937C24.3242 20.761 24.1516 20.0708 23.864 19.4956C23.6915 20.531 23.1163 21.3937 22.4261 22.199C21.9085 22.6591 21.3908 23.1192 20.7581 23.4643V27.3755L20.8156 29.101C20.8156 29.2736 20.6431 29.5612 20.4705 29.6187C20.1829 29.5612 19.9529 29.4461 19.7228 29.2736C19.0326 28.8135 18.3999 28.2958 17.8247 27.6631C16.8808 26.6155 16.1596 25.387 15.7048 24.0523C15.25 22.7175 15.0711 21.3043 15.1789 19.8983C15.371 17.4225 16.2776 15.0557 17.7886 13.0852C19.2997 11.1147 21.3503 9.62515 23.6915 8.79743C24.8418 8.33729 26.0497 8.0497 27.3151 7.99219Z" fill="#262626"/>
</g>
</svg>
