<svg width="60" height="60" viewBox="0 0 60 60" fill="none" xmlns="http://www.w3.org/2000/svg">
<mask id="mask0_57_6985" style="mask-type:luminance" maskUnits="userSpaceOnUse" x="1" y="1" width="58" height="58">
<path d="M58.2381 1.875H1.87109V58.242H58.2381V1.875Z" fill="white"/>
</mask>
<g mask="url(#mask0_57_6985)">
<path d="M31.2091 8.75307C32.8196 8.81058 34.4301 9.09817 36.0405 9.61583C38.2919 10.2514 40.2974 11.555 41.7923 13.3545C42.8851 14.7924 43.5753 16.5179 43.8054 18.3009C44.1158 20.2224 44.1545 22.178 43.9204 24.1102L43.6328 26.0658L43.4028 27.2161C43.3452 27.3312 43.3452 27.3312 43.2302 27.3312C43.1152 27.1011 43.1152 26.871 43.1152 26.641C43.0577 25.7782 43.1727 24.9729 43.2302 24.1102C43.2877 22.7298 43.4028 21.3494 43.2877 19.9689L42.9426 17.3807C42.54 15.7702 41.7923 14.2747 40.6419 13.0669C39.6066 12.0316 38.3412 11.1688 37.0183 10.5936C35.753 10.076 34.4876 9.73086 33.1647 9.50079C32.1294 9.32824 31.094 9.27072 30.0587 9.27072C27.5065 9.22892 24.9815 9.80098 22.6965 10.9387C21.9488 11.4564 21.2586 12.0891 20.6834 12.7793C18.9136 15.1025 17.8189 17.869 17.52 20.7742C17.4624 22.1546 17.52 23.4775 17.9801 24.8004L18.3827 25.6632L19.0729 25.7207L19.1304 25.8932C18.9579 26.0083 18.7278 26.0083 18.4978 26.0658C17.9226 26.1808 17.3474 26.4109 16.8298 26.756C16.4271 27.0436 16.0245 27.3887 15.7944 27.8488C15.5069 28.424 15.6219 29.1142 15.7369 29.7469C16.0245 30.8397 16.7147 31.875 17.635 32.5652C18.2677 33.0829 19.0729 33.3705 19.8782 33.4855C20.4533 33.6005 21.0285 33.4855 21.6037 33.428C21.8913 33.6581 22.0638 34.1182 22.2364 34.4058L23.2717 35.9588C24.2074 37.2886 25.5343 38.2939 27.0678 38.8346C28.3332 39.3523 29.6561 39.6399 30.979 39.9274L33.3372 40.3876L34.315 40.6752V40.9052H33.6248C32.3319 40.8331 31.0447 40.6794 29.7712 40.4451C28.0606 40.1047 26.4245 39.4619 24.9397 38.547C24.307 38.1444 23.7318 37.6268 23.2717 36.9941C23.6701 39.3914 23.3499 41.853 22.3514 44.0687C21.4887 45.6217 20.0507 46.8295 18.3252 47.3472C18.1527 47.4047 17.9226 47.4622 17.75 47.4047C17.635 47.4047 17.635 47.3472 17.635 47.2321C17.6925 47.0596 17.8651 46.9446 17.9801 46.887C18.6703 46.4269 19.4756 46.0818 20.1658 45.5641C20.9135 44.9315 21.5462 44.2412 21.9488 43.3785C22.2939 42.5157 22.524 41.5379 22.639 40.5601C22.754 39.8124 22.8116 39.0647 22.754 38.2594L22.524 36.0738L21.4887 34.0032L20.3958 34.2332C19.5515 34.2578 18.7145 34.0707 17.961 33.6889C17.2076 33.3072 16.5616 32.7429 16.082 32.0476C15.3323 31.0977 14.9267 29.9217 14.9317 28.7116C14.9317 28.1939 15.1042 27.6763 15.3918 27.2736C15.6794 26.871 16.082 26.5259 16.4847 26.2958C16.7722 26.0658 17.1749 25.9507 17.52 25.8357L17.0023 24.4553C16.7147 23.1899 16.7147 21.867 16.8873 20.6016C17.2639 17.4607 18.52 14.49 20.5109 12.0316C21.0285 11.4564 21.5462 10.9387 22.1789 10.5361C22.5815 10.306 22.9841 10.2485 23.3292 10.0184C25.8025 8.92562 28.5058 8.58051 31.2091 8.75307Z" fill="#262626"/>
<path d="M30.0581 9.26915C32.448 9.18026 34.8271 9.63248 37.0177 10.5921C38.3406 11.1672 39.6059 12.03 40.6413 13.0653C41.7916 14.2732 42.5393 15.7686 42.9419 17.3791L43.287 19.9674C43.4021 21.3478 43.287 22.7282 43.2295 24.1086C43.172 24.9714 43.057 25.7766 43.1145 26.6394C43.1145 26.8695 43.1145 27.0995 43.2295 27.3296L43.172 28.4799C43.057 28.7675 43.057 29.0551 43.057 29.4002C42.9419 30.7806 42.9419 32.2186 42.7119 33.6565C42.6544 34.3467 42.5393 35.0944 42.2517 35.7271C42.0792 36.2448 41.7916 36.7049 41.389 37.1075C40.6988 37.8553 39.836 38.4879 38.9157 39.0056C37.8229 39.6383 36.6726 39.9259 35.5797 40.386C35.2921 40.5011 35.0046 40.6161 34.832 40.8462C35.2921 40.9037 35.6948 40.8462 36.1549 40.7311C35.8673 41.4213 35.8098 42.1115 35.8098 42.8017C35.8098 43.0893 35.7523 43.4344 35.8673 43.722C36.0399 44.0096 36.3275 44.2397 36.615 44.4122L38.6281 45.16C39.8935 45.6201 41.1014 46.1953 42.3668 46.7129C42.4818 46.943 42.6544 47.1155 42.7119 47.4031C43.057 48.0358 43.1145 48.726 42.8844 49.4162C42.5968 50.164 42.0217 50.7966 41.3315 51.1993C40.4112 51.832 39.2608 52.2921 38.168 52.5797C33.6957 53.5352 29.0589 53.3971 24.6514 52.1771C23.5011 51.7744 22.3507 51.3718 21.3154 50.7966C20.5102 50.3365 19.6474 49.7613 19.0147 49.0136C18.6696 48.5535 18.3821 47.9208 18.3245 47.3456C19.6714 46.9345 20.8633 46.1278 21.7455 45.0302C22.6277 43.9326 23.1592 42.595 23.271 41.1913C23.5011 39.8108 23.5011 38.3729 23.271 36.9925C23.7312 37.6252 24.3063 38.1428 24.939 38.5455L26.492 39.3507C28.747 40.3235 31.1688 40.8509 33.6241 40.9037H34.3143V40.6736L33.3366 40.386L30.9783 39.9259C29.6554 39.6383 28.3325 39.3507 27.0672 38.833C26.3194 38.4879 25.5142 38.0853 24.824 37.6252C24.2488 37.1075 23.7312 36.5899 23.271 35.9572L22.2357 34.4042C22.0632 34.1166 21.8906 33.6565 21.603 33.4264C21.0279 33.4839 20.4527 33.599 19.8775 33.4839C19.0723 33.3689 18.267 33.0813 17.6343 32.5637C16.7152 31.8526 16.0496 30.8643 15.7363 29.7453C15.6212 29.1126 15.5062 28.4224 15.7938 27.8472C16.0238 27.3871 16.4265 27.042 16.8291 26.7544C17.3467 26.4093 17.9219 26.1792 18.4971 26.0642C18.7272 26.0067 18.9572 26.0067 19.1298 25.8917L19.0723 25.7191L18.3821 25.6616L17.9794 24.7988C17.5193 23.4759 17.4618 22.153 17.5768 20.7726C17.8589 17.8731 18.9335 15.1072 20.6827 12.7777C21.2579 12.0875 21.9481 11.4548 22.6959 10.9372C24.9759 9.77951 27.5011 9.18767 30.0581 9.21164V9.26915Z" fill="#FFDECC"/>
<path d="M17.6934 28.1406C17.9234 28.1406 18.096 28.1406 18.326 28.2557C18.6136 28.3132 18.9587 28.4857 19.1313 28.7158C19.2463 28.8884 19.2463 29.1184 19.1313 29.291C18.8437 29.6361 18.4411 29.8661 18.211 30.2112C18.5561 30.4413 19.0163 30.5564 19.4189 30.7289C19.6489 30.7864 19.879 30.9015 20.0516 31.074L20.1091 31.2466L19.6489 31.1315L18.2685 30.7289C18.0385 30.6714 17.8084 30.5564 17.7509 30.3263C17.6934 30.1537 17.8084 29.9237 17.9234 29.7511L18.7862 29.0034C18.5561 28.6008 17.9234 28.5432 17.6934 28.1406ZM43.1735 28.4857L43.2886 28.6583L43.4036 29.5786C43.5229 31.2848 43.4844 32.9984 43.2886 34.6976C43.1735 35.3303 43.001 36.0205 42.7134 36.5957C41.1873 38.5923 39.0437 40.0281 36.6166 40.6794C36.559 41.4846 36.444 42.4624 36.5015 43.3827L36.7891 43.6703C37.2492 44.0154 37.8244 44.188 38.3421 44.3605C39.6875 44.79 40.9955 45.3286 42.2533 45.971C42.6559 46.2011 43.001 46.4886 43.2886 46.8337C43.001 46.8913 42.7134 46.7762 42.3683 46.7187C41.1029 46.2011 39.895 45.6259 38.6297 45.1657L36.6166 44.418C36.329 44.2455 36.0414 44.0154 35.8688 43.7278C35.7538 43.4402 35.8113 43.0951 35.8113 42.8075C35.8113 42.1173 35.8688 41.4271 36.1564 40.7369C35.6963 40.852 35.2937 40.9095 34.8335 40.852C35.0061 40.6219 35.2937 40.5068 35.5812 40.3918C36.6741 39.9317 37.8244 39.6441 38.9172 39.0114C39.8375 38.4937 40.7003 37.8611 41.3905 37.1133C41.7931 36.7107 42.0807 36.2506 42.2533 35.7329C42.5408 35.1002 42.6559 34.3525 42.7134 33.6623C42.9435 32.2244 42.9435 30.7864 43.0585 29.406C43.0585 29.0609 43.0585 28.7733 43.1735 28.4857Z" fill="#262626"/>
<path d="M42.5975 24.625L42.4824 25.0276C42.3099 25.3152 42.1373 25.5453 41.8497 25.7178C41.5622 25.8904 41.2171 25.9479 40.8719 26.0054L39.8366 26.1205C39.5491 26.1205 39.3765 26.293 39.2615 26.4656L38.8588 26.8682C38.7438 26.9257 38.5713 26.8107 38.6288 26.6956C38.6863 26.2355 39.0314 25.8904 39.2615 25.5453C39.434 25.3727 39.6641 25.1427 39.9517 25.1427L41.6772 24.8551C41.9648 24.7976 42.2524 24.625 42.5975 24.625ZM25.0547 24.8551C25.7449 24.7976 26.2626 25.0276 26.8952 25.0851C27.758 25.2002 28.6208 25.3152 29.4835 25.3152L30.8639 25.4302C31.3241 25.4878 31.8417 25.4302 32.2444 25.6603C32.647 25.8904 32.9346 26.2355 33.1646 26.5806C33.2221 26.6956 33.2797 26.8107 33.1646 26.9832C33.1071 27.0407 32.9921 26.9832 32.9346 26.9257C32.7045 26.8107 32.5319 26.5806 32.3019 26.5231L31.6117 26.4656L30.0012 26.408L28.7358 26.3505C28.1606 26.293 27.5854 26.293 27.0103 26.0629C26.6077 25.9479 26.3201 25.7178 25.9174 25.5453L25.2272 25.0276C25.1122 24.9701 25.0547 24.9701 25.0547 24.8551Z" fill="#262626"/>
<path d="M31.6686 17.9549C32.0712 17.9549 32.4739 18.0699 32.7615 18.3C32.9915 18.415 33.1641 18.53 33.2216 18.7601C33.2791 18.8751 33.2216 19.0477 33.1066 19.1052C32.819 19.1627 32.5314 18.9902 32.3013 18.9327L31.7837 18.8751C31.0359 18.8176 30.2882 18.9327 29.5405 19.1052C28.2819 19.4613 27.1081 20.0678 26.0894 20.8882C25.8594 21.0033 25.5718 21.1758 25.2842 21.1183C25.1116 21.1183 25.1116 20.8882 25.1692 20.7157C25.2267 20.3706 25.5718 20.083 25.8594 19.7954C26.4345 19.2778 27.1823 18.9327 27.8725 18.6451C29.0228 18.1274 30.4032 17.8398 31.6686 17.9549ZM40.6413 18.0699C41.0439 17.9549 41.4466 18.0124 41.7917 18.2425C42.0217 18.415 42.2518 18.5876 42.3093 18.8751C42.3668 19.0477 42.3668 19.2202 42.1943 19.2778C42.0217 19.3353 41.7917 19.3353 41.6191 19.2202C41.3315 19.0477 41.1015 18.8751 40.7564 18.8751C40.4688 18.8751 40.1812 18.9327 39.9511 19.0477C39.491 19.2778 39.0308 19.6804 38.8008 20.1405L38.4557 20.6582H38.2831V20.3131C38.3981 19.8529 38.6857 19.3928 39.0308 19.0477C39.4335 18.5876 40.0086 18.1849 40.6413 18.0699Z" fill="#262626"/>
<path d="M15.1616 28.0248C15.4492 28.0248 15.7368 27.9673 15.9669 28.1399C16.1394 28.2549 16.2545 28.4274 16.1969 28.6575C16.0819 28.8876 15.8518 29.0601 15.5642 29.0601H14.644C14.3564 29.0026 14.1263 28.8876 14.0113 28.6575C13.9538 28.4274 14.1263 28.2549 14.2989 28.1399C14.5865 28.0248 14.874 28.0823 15.1616 28.0248ZM15.9094 29.3477C16.0819 29.4052 16.312 29.5203 16.312 29.7503C16.312 29.9229 16.2545 30.0955 16.0819 30.153C15.7943 30.383 15.4492 30.383 15.1041 30.4981C14.8165 30.5556 14.5289 30.6131 14.2989 30.4406C14.0688 30.268 14.1263 29.9229 14.2989 29.7503C14.5289 29.5203 14.759 29.5203 15.0466 29.4628C15.3342 29.4052 15.6218 29.2902 15.9094 29.3477ZM20.0506 32.3386H20.5107C20.6833 32.3961 20.8558 32.5687 20.8558 32.7988C20.8558 33.0864 20.6258 33.3164 20.3382 33.3739C20.0506 33.489 19.8205 33.2589 19.7055 33.0288C19.648 32.7412 19.763 32.3961 20.0506 32.3386Z" fill="#262626"/>
<path d="M37.6509 30.1484C37.6509 30.321 37.5359 30.4935 37.4208 30.6661C37.1908 31.0112 36.7882 31.2413 36.3855 31.3563C36.098 31.4138 35.8679 31.2413 35.6378 31.3563C35.4077 31.3563 35.1777 31.4138 34.9476 31.2988C34.8326 31.2413 34.8326 31.0687 34.9476 30.9537C35.1202 30.7236 35.4077 30.5511 35.6378 30.5511C35.8679 30.4935 36.0404 30.4935 36.213 30.6661L36.2705 31.0687C36.5581 30.9537 36.6731 30.7811 36.9032 30.6086L37.6509 30.1484Z" fill="#262626"/>
<path d="M44.0921 28.9461C44.6098 28.9461 45.0699 29.1762 45.3575 29.5788C45.4919 29.7555 45.5898 29.9572 45.6452 30.1721C45.7007 30.387 45.7127 30.6108 45.6806 30.8305C45.6484 31.0501 45.5728 31.2611 45.458 31.4511C45.3433 31.6411 45.1918 31.8063 45.0124 31.937C45.4726 32.0521 45.9327 32.3397 46.2778 32.6848C46.7955 33.3175 47.1981 34.1802 47.1406 35.043C47.083 35.5031 46.9105 35.9057 46.6804 36.2508C46.2203 36.9986 45.4726 37.5162 44.6673 37.8613L45.1275 38.379C45.3 38.7816 45.3575 39.1842 45.3575 39.6444C45.3 40.3346 45.0124 41.0248 44.4948 41.5424C43.9007 42.1105 43.1286 42.4559 42.3091 42.5202C41.7339 42.5777 41.1012 42.5777 40.5261 42.4052C40.4685 42.8078 40.3535 43.268 40.181 43.6706C39.7934 44.3541 39.1771 44.8788 38.4405 45.1524C37.704 45.426 36.8945 45.4308 36.1548 45.166C35.4645 44.8784 34.8894 44.3608 34.5443 43.7856C33.6815 44.3033 32.7612 44.4758 31.7834 44.4758C30.9782 44.5333 30.0004 44.4758 29.3102 44.0732C28.8501 43.9006 28.5625 43.5555 28.2749 43.2104C28.1023 43.0379 27.9873 42.8653 27.9298 42.5777C27.2971 43.0954 26.4343 43.2104 25.6866 43.0954C25.1114 42.9228 24.5938 42.6353 24.3062 42.1176C24.0186 41.7725 23.9611 41.2548 23.9611 40.7947H23.1558C22.6957 40.7372 22.2356 40.5071 21.8329 40.2195C21.2003 39.6444 20.6826 38.8966 20.3375 38.0914C20.2225 37.7463 20.1074 37.4012 20.1074 36.9986C20.1074 36.3659 20.3375 35.7332 20.7401 35.2155C20.5676 34.8129 20.51 34.4103 20.6251 34.0077C20.7976 33.3175 21.3153 32.7423 21.8905 32.3972C22.4081 32.0521 23.0408 31.937 23.6735 31.9946C23.7885 31.6495 23.9611 31.4194 24.2487 31.1893C24.8814 30.6141 25.6866 30.269 26.5494 30.269C27.1245 30.269 27.6422 30.3266 28.1023 30.5566C28.3324 30.2115 28.62 30.039 28.9651 29.9239C29.5978 29.6364 30.288 29.6939 30.9207 29.9815C32.0135 30.3841 32.8763 31.0168 33.9116 31.4194C34.1992 31.6495 34.6018 31.5919 35.0044 31.6495C35.407 31.707 35.8096 31.6495 36.2123 31.5919C36.3848 31.5344 36.6149 31.5344 36.7299 31.4194L37.8228 30.8442L38.9731 29.9815C39.4332 29.6939 40.0084 29.4063 40.5836 29.4638C40.8137 29.5213 40.9862 29.6364 41.1012 29.8089C41.9892 29.2279 43.0312 28.9274 44.0921 28.9461Z" fill="#262626"/>
<path d="M30.232 34.2882C30.4046 34.2307 30.5196 34.2882 30.5196 34.4032C30.5196 34.5758 30.3471 34.7483 30.1745 34.8058C30.0019 34.6333 30.0595 34.4032 30.232 34.2882ZM31.6699 34.9784L33.7406 35.381L35.4661 35.4961C35.8687 35.5536 36.2138 35.4961 36.5589 35.6111C36.5014 35.7261 36.3864 35.7836 36.2138 35.8412C34.7878 36.0658 33.3287 35.9475 31.9575 35.4961C31.785 35.4385 31.5549 35.3235 31.4974 35.1509C31.4399 35.0359 31.5549 34.9209 31.6699 34.9784Z" fill="#FFDECC"/>
<path d="M29.9443 8.00631C31.5685 8.00954 33.1878 8.18304 34.7758 8.52397C35.4084 8.69652 35.9836 8.81155 36.5588 9.04162L38.5719 9.78935C39.1471 9.9619 39.6647 10.307 40.2399 10.5371L41.1602 10.8822L42.8282 11.2273C43.1158 11.3423 43.3458 11.5149 43.4609 11.8025C43.6334 12.1476 43.5759 12.4927 43.4609 12.8378L44.036 13.1254C44.3236 13.4129 44.4387 13.8156 44.3236 14.2182C44.2086 14.4483 43.9785 14.6208 43.7485 14.7358C42.5246 15.3635 41.1148 15.527 39.7798 15.196L37.249 14.6208L33.6829 13.643C30.6342 12.6 27.3159 12.661 24.3076 13.8156L24.0775 14.6208C23.8475 15.5411 23.6749 16.4614 23.6174 17.3816V18.3594L23.5599 18.8196C23.3873 19.2222 23.0422 19.6248 22.8122 20.0274C22.1219 21.0627 21.4893 22.1556 20.9716 23.2484L20.8566 24.0536V26.2968C20.8566 26.5844 20.9716 26.8145 20.7991 27.0445C19.9363 26.9295 19.0735 26.6994 18.1533 26.4694C18.0382 26.4694 17.8657 26.4694 17.7506 26.3543L17.348 25.8367C17.1179 25.6641 17.0604 25.319 16.9454 25.0314C16.5428 23.8236 16.4277 22.4432 16.4277 21.1203C16.4277 19.5098 16.7153 17.9568 17.0029 16.4038C17.233 15.5411 17.5781 14.7358 17.9807 13.9881C18.5559 12.8378 19.3611 11.86 20.2814 10.9972C21.2017 10.0769 22.2945 9.44425 23.5024 8.98411C25.5674 8.24928 27.7542 7.91735 29.9443 8.00631ZM19.3036 27.0445C19.8788 27.0445 20.4539 27.2171 20.9716 27.3321C21.2017 27.3896 21.4893 27.5047 21.6618 27.6772C21.8344 27.7923 21.7768 28.0223 21.6043 28.0799C21.0866 28.2524 20.684 28.0799 20.2239 27.9648C19.8788 27.8498 19.4186 27.7348 19.0735 27.5047C18.9585 27.4472 18.7859 27.2746 18.901 27.1596C19.016 27.0445 19.1886 27.0445 19.3036 27.0445ZM44.4387 33.7741C44.4962 33.8891 44.4962 33.9466 44.3811 34.0617L44.4387 33.7741Z" fill="#262626"/>
</g>
</svg>
